<?xml version="1.0" encoding="utf-8"?>
<!-- Generator: Adobe Illustrator 24.1.3, SVG Export Plug-In . SVG Version: 6.00 Build 0)  -->
<svg version="1.1" id="Layer_1" xmlns="http://www.w3.org/2000/svg" xmlns:xlink="http://www.w3.org/1999/xlink" x="0px" y="0px"
	 viewBox="0 0 86.6 72.1" style="enable-background:new 0 0 86.6 72.1;" xml:space="preserve">
<style type="text/css">
	.st0{fill:#231F20;}
</style>
<path class="st0" d="M44.7,72l-0.2-1l-0.1-0.1l-0.2,0.2L43.9,71l0.1-3.2l-0.4-0.7h-0.3l-0.1,0.1l-0.4,2.4l-0.1,0.5L42.6,70l-0.1-0.5
	v-0.7L42.4,67l-0.2-0.4l-0.1-0.1l-0.3-0.4v-0.3l0.1-0.2l0.2-0.2v-0.2l-0.3-0.9l-0.1-0.2L41.2,64L41,63.9h-0.3l-1.1-0.7l-0.7-0.9
	l-0.2-0.8v-0.1l-0.1-0.1l0.1-0.4l-0.1-0.2l0.2-0.4H39l0.1,0.1l0.1,0.1l0.5,1l0.1,0.2l0.1,0.1l1.3,0.7l0.2,0.2l0.6,0.2l0.1-0.1
	l0.4-0.2l0.1-0.2l0.2-0.6v-0.4l0.3-1.2l0.1-0.2v-0.1l0.1-0.2l0.8-3.8v-0.6L43.8,50v-0.6l0.4-2.9l0.1-0.2v-0.1l0.8-4V42l0.1-0.1
	l0.1-0.2L46,38l0.1-0.1v-0.5l0.9-3l0.1-0.3l0.1-0.1l0.1-0.3l0.7-2.2v-0.2l0.1-0.4l1.4-4l0.1-0.2l0.1-0.1l0.2-0.2l2.2-5.7l0.1-0.2
	l0.1-0.1l0.1-0.2l1.5-4.2l0.1-0.2v-0.1l0.1-0.2l0.8-2.5l0.1-0.3l0.1-0.3l0.7-2.2V9.8l-0.4-0.1l-0.9,1.4L54,11.3l-0.4-0.8l0.1-0.8
	l0.7-0.9l0.1-0.4l0.2-0.1l1.9-2.8l0.6-2.2l0.1-0.2L58,2.4L58.7,2L59,2.1L59.5,2l0.3-0.2H60l0.8-0.2h0.1l0.7-0.4l0.2-0.1l0.4-0.2
	l0.4-0.6l0.1-0.2L63.4,0l0.1,0.4v0.1l0.1,0.2l0.1,1.7l0.1,0.1l0.4,0.4l3.4-0.3l0.2-0.1H68l0.2,0.1L70.7,3l0.2-0.1l0.4,0.2l0.2,0.1
	l0.8,0.2l0.4,0.2h0.1l2.7,1.2L75.8,5L77,5.4l0.2,0.1l0.1,0.1l2.2,1.8l0.1,0.1l1.7,1.8l0.1,0.2l0.1,0.1l0.1,0.2l1.9,2.6l1.2,2.2
	l0.2,0.1v0.2l0.1,0.2l0.6,1.6l0.1,0.2l0.1,0.1l0.6,2.7l0.1,0.1L86.4,20l0.4,3l-0.2,4.2l-0.1,0.2L86.1,30v0.3L86,30.4l-0.1,0.3
	l-0.4,1.5L85,32.8l-0.6,1.9l-0.1,0.5l-0.8,2l-0.1,0.2l-0.1,0.2v0.2l-1.1,2.4l-0.4,0.7L81,42.5l-0.2,0.1l-0.1,0.2l0,0.2l-1.4,2.7
	l-0.2,0.2L79,46l-0.1,0.2l-2.5,3.7L76.2,50l-0.1,0.1L76,50.3l-2.3,3.1l-0.4,0.4l-3,3.2l-0.4,0.4l-2.3,2l-0.2,0.1l-0.1,0.1l-2.7,2
	l-2.4,1.5l-0.1,0.1L62,63.4l-2.2,1.2l-0.2,0.1l-0.2,0.2l-2.2,1L57,66l-0.1,0.1h-0.3L54,66.8l-0.2,0.1L53.5,67l-2.4,0.4H49L48.5,68
	l-0.4-0.2l-0.6,0.7V69l-0.7,1.8L46.7,71v0.3L46.1,72l-0.2-0.2l-0.2-0.5h-0.2L45.1,72v0.1L44.7,72z M44.3,60.4h0.2l0.2-0.7v-0.2
	l0.1-0.2l0.7-3.4l0.1-0.2l0.1-0.2l0.1-1l0.1-0.1l-0.2-0.2l-0.1,0.2L45,56.2v0.1l-0.1,0.2L44.3,59V60.4z M44.4,69l0.4-0.3v-0.4
	l0.1-0.1l0.1-0.6l-0.1-0.2h-0.2l-0.1,0.1l-0.1,0.1v0.2l-0.1,1L44.4,69L44.4,69z M45.7,61l0.4-0.7l1.8-8.5v-0.2l-0.1-0.2l-0.1,0.1
	l-0.2,0.4v0.5l-0.4,0.4l0.1-0.4l-0.1-0.1l-0.2,0.1l-0.1,0.2L46.3,54l-0.1,0.2l-0.1,0.1v0.3l-0.4,1.7v0.1l-0.1,0.2l-0.1,0.8l-0.1,0.2
	v0.3l-0.2,1.2L45,59.3l0.1,0.9h0.2l0.4-1l0.1-0.2v-0.1l0.1,0.1v0.2l-0.2,0.6v1.1L45.7,61z M48.3,46.9l0.2-0.3l0.1-0.2l0.1-0.3
	l0.3-0.9V45l-0.2,0.3l-0.4,1.2l-0.1,0.2C48.3,46.7,48.3,46.9,48.3,46.9z M49.5,60.4h0.2l0.4-0.4l0.1-0.4l0.2-1v-0.2l0.1-0.3V58
	l1.1-4.5V53l1.1-4.7l0.1-0.4l1.2-5l0.1-0.2l0.1-0.1l2.4-8.8v-0.4l-0.2,0.2l-0.9,1.7l-0.4,1.4L55,37v0.1l-0.1,0.2L53.3,43v0.7
	l-0.9,3.2l-0.1,0.2v0.2l-0.1,0.2l-1.4,6.3L50.6,54l-0.1,0.2l-1,5.2V60.4z M50.3,66.6h0.6l0.2-0.1l3.2-0.9l0.4-0.1l0.1-0.2l1.2-0.5
	l0.1-0.1l3.6-1.8l0.1-0.2l0.2-0.1l0.1-0.1l2.5-1.4L63,61l0.4-0.2l1.4-1l0.1-0.2l0.2-0.1l0.1-0.1l2.1-1.7l0.2-0.1l0.2-0.1l0.1-0.2
	l1-1.2l0.1-0.1v0l-0.2-0.3l0.6-0.6l0.1-0.2h0.1l2.2-2.3l0.3-0.3l0.1-0.2l2.2-2.8l0.1-0.2l0.3-0.4l2.1-3.1l0.1-0.2l0.1-0.2l0.2-0.5
	L77,45l-2.3,3.3l-0.4,0.4l-1.7,2.2L72.4,51l-0.1,0.3L70,53.8l-0.1,0.3l-0.1,0.1l-0.3,0.2L67.8,56l-0.1,0.2h-0.2l-0.9,0.5l-0.9,0.8
	l-0.1,0.2l-0.2,0.1l-0.1,0.1l-2.6,1.9l-0.2,0.1L62.4,60L62,60l-1.2,0.9V61v0.1h0.1l2-1.2H63l0.2-0.1l1.6-1.2l0.4-0.2l1.2-0.9
	l0.1-0.1v0.2l-0.3,0.3l-1.1,0.9H65l-0.5,0.6h-0.2L64,59.6L63.8,60h-0.1l-0.3,0.3L60.8,62l-0.2,0.1l-0.1,0.1l-0.2,0.1L57.2,64L57,64
	h-0.1l-1.2,0.6l-0.2,0.2l-0.3,0.1L51.9,66l-0.4,0.2L50.3,66.6L50.3,66.6z M50.4,59.9l0.5,0.2l0.2-0.1l0.4-0.1l2.3-1.5l0.2-0.2
	l0.3-0.3l3.5-2.7l0.2-0.1l0.3-0.4l0.2-0.2h0.2l0.1-0.2l3.6-3.2l0.2-0.2l0.3-0.2l4.2-4.5l0.2-0.2l0.1-0.1l0.1-0.2l3-4v-0.1l0.1-0.2
	l0.2-0.1l0.5-0.7l0.1-0.3l0.2-0.2l2.8-5l0.1-0.1l0.2-0.3l1.7-3.8l0.1-0.3v-0.1l0.1-0.3l1-3.1l0.1-0.2l0.1-0.1l0.1-0.2l0.4-2.5
	l0.1-0.1v-0.2l0.1-0.2l0.3-1.8l0.1-0.1V21v-4v-0.6l-0.5-1.6v-0.4l-0.1-0.1L78,13v-0.3l-0.1-0.3l-0.4-0.8l-0.2-0.1l-0.1-0.3l-1.8-2
	L75.2,9H75l-2.3-1.6h-0.1l-0.4-0.2L69.6,6l-0.1-0.1h-0.2L69,5.8l-1.7-0.4H67l-0.2,0.1l-2.7,0.1l-0.3,0.1l-0.1,0.1l-0.1,0.4v0.1
	l0.1,0.4v0.1l-0.1,0.1h-0.1l-0.1-0.1l-0.1-0.1l-0.1-0.1H63l0,0.3v0.5l0.1,0.5V8v0.4L63,11.7V12v0.3l-0.2,1.3v0.3L62.7,14v0.2
	l-0.8,3.3l-0.1,0.3v0.1l-0.1,0.2l-1.2,4l-0.1,0.2l-0.1,0.1l-0.1,0.2l-0.6,1.9l-0.1,0.1V25l0.2,0.1v0.1l-0.1,0.1L58,30.2l-0.1,0.2
	l-0.1,0.1l-0.1,0.3l-2.1,7.4l-0.1,0.4l-0.1,0.1l-2.1,7.9v0.2l0,0.2l-1,3.9l-0.1,0.2l0.1,0.1l-0.1,0.2l-0.5,2.2v0.2l-0.1,0.1
	l-0.1,0.3l-1,5L50.4,59.9z M53.3,59.8l0.6-0.2l0.2-0.1l0.7-0.6l0.4-0.1l0.5-0.7l0.2-0.2H56l0.4-0.4h-0.1l-0.1,0.1H56l-0.9,0.7
	L55,58.5l-0.2,0.1l-1.4,0.9l-0.1,0.1V59.8z M56.7,57.5l0.4-0.5h0.1v-0.1l0.2-0.2h-0.2H57l-0.3,0.2V57V57.5L56.7,57.5z M66.9,57.4
	l0.2-0.4l0.2-0.1l0.2,0.1h0L66.9,57.4L66.9,57.4z M67.8,56.7L67.8,56.7l0.4-0.6h0.1l0.2-0.1l0.1,0.1L68,56.6L67.8,56.7z M72.5,6.3
	l0.2-0.1L72,5.6l-0.2-0.1l-1.3-0.4H70v0.3v0.1h0.2l2.2,0.8H72.5z M73.4,7L73.4,7L73.4,7L73.4,7z M81.7,17.8L81.7,17.8l0.1-0.1
	l0.1-0.1v-0.1l-0.1-0.1l-0.1-0.2l-0.1-0.1l-0.1,0.1L81.7,17.8L81.7,17.8z"/>
<path class="st0" d="M6.1,69.4l-0.2-1l-0.1-0.1l-0.2,0.2l-0.3-0.1l0.1-3.2L5,64.5H4.7l-0.1,0.1L4.2,67l-0.1,0.5L4,67.4l-0.1-0.5
	v-0.7l-0.1-1.8L3.6,64l-0.1-0.1l-0.3-0.4v-0.3L3.3,63l0.2-0.2v-0.2l-0.3-0.9l-0.1-0.2l-0.5-0.1l-0.2-0.1H2.1L1,60.6l-0.7-0.9
	l-0.2-0.8v-0.1L0,58.7l0.1-0.4L0,58.1l0.2-0.4h0.2l0.1,0.1l0.1,0.1l0.5,1l0.1,0.2l0.1,0.1l1.3,0.7l0.2,0.2l0.6,0.2l0.1-0.1L3.9,60
	L4,59.8l0.2-0.6v-0.4l0.3-1.2l0.1-0.2v-0.1l0.1-0.2l0.8-3.8v-0.6l-0.3-5.3v-0.6l0.4-2.9l0.1-0.2v-0.1l0.8-4v-0.2l0.1-0.1l0.1-0.2
	l0.7-3.7l0.1-0.1v-0.5l0.9-3l0.1-0.3l0.1-0.1l0.1-0.3l0.7-2.2v-0.2l0.1-0.4l1.4-4l0.1-0.2l0.1-0.1l0.2-0.2l2.2-5.7l0.1-0.2l0.1-0.1
	l0.1-0.2l1.5-4.2l0.1-0.2v-0.1l0.1-0.2l0.8-2.5l0.1-0.3l0.1-0.3l0.7-2.2V7.2l-0.4-0.1l-0.9,1.4l-0.5,0.2L15,7.9l0.1-0.8l0.7-0.9
	l0.1-0.4l0.2-0.1L18,2.9l0.6-2.2l0.1-0.2l0.7-0.7l0.7-0.4l0.3,0.1l0.5-0.1l0.3-0.2h0.2L22.2-1h0.1L23-1.4l0.2-0.1l0.4-0.2L24-2.3
	l0.1-0.2l0.7-0.1l0.1,0.4v0.1L25-1.9l0.1,1.7l0.1,0.1l0.4,0.4L29,0l0.2-0.1h0.2L29.6,0l2.5,0.4l0.2-0.1l0.4,0.2l0.2,0.1l0.8,0.2
	L34.1,1h0.1l2.7,1.2l0.3,0.2l1.2,0.4l0.2,0.1L38.7,3l2.2,1.8L41,4.9l1.7,1.8l0.1,0.2L42.9,7L43,7.2l1.9,2.6l1.2,2.2l0.2,0.1v0.2
	l0.1,0.2l0.6,1.6l0.1,0.2l0.1,0.1l0.6,2.7l0.1,0.1l-0.1,0.2l0.4,3L48,24.6l-0.1,0.2l-0.4,2.6v0.3l-0.1,0.1l-0.1,0.3l-0.4,1.5
	l-0.5,0.6l-0.6,1.9l-0.1,0.5l-0.8,2l-0.1,0.2L44.7,35v0.2l-1.1,2.4l-0.4,0.7l-0.8,1.6L42.2,40l-0.1,0.2l0,0.2l-1.4,2.7l-0.2,0.2
	l-0.1,0.1l-0.1,0.2l-2.5,3.7l-0.2,0.1l-0.1,0.1l-0.1,0.2l-2.3,3.1l-0.4,0.4l-3,3.2l-0.4,0.4l-2.3,2l-0.2,0.1L28.7,57L26,59l-2.4,1.5
	l-0.1,0.1l-0.1,0.2L21.2,62L21,62.1l-0.2,0.2l-2.2,1l-0.2,0.1l-0.1,0.1H18l-2.6,0.7l-0.2,0.1l-0.3,0.1l-2.4,0.4h-2.1l-0.5,0.6
	l-0.4-0.2l-0.6,0.7v0.5l-0.7,1.8l-0.1,0.2v0.3l-0.6,0.7l-0.2-0.2l-0.2-0.5H6.9l-0.4,0.7v0.1L6.1,69.4z M5.7,57.8h0.2l0.2-0.7v-0.2
	l0.1-0.2l0.7-3.4L7,53.1l0.1-0.2l0.1-1l0.1-0.1l-0.2-0.2L7,51.8l-0.6,1.8v0.1l-0.1,0.2l-0.6,2.5V57.8z M5.8,66.4l0.4-0.3v-0.4
	l0.1-0.1L6.4,65l-0.1-0.2H6.1L6,64.9L5.9,65v0.2l-0.1,1L5.8,66.4L5.8,66.4z M7.1,58.4l0.4-0.7l1.8-8.5V49l-0.1-0.2l-0.1,0.1
	l-0.2,0.4v0.5l-0.4,0.4l0.1-0.4l-0.1-0.1l-0.2,0.1L8.2,50l-0.5,1.4l-0.1,0.2l-0.1,0.1V52l-0.4,1.7v0.1L7,54l-0.1,0.8L6.8,55v0.3
	l-0.2,1.2l-0.2,0.2l0.1,0.9h0.2l0.4-1l0.1-0.2v-0.1l0.1,0.1v0.2l-0.2,0.6v1.1L7.1,58.4z M9.7,44.3L9.9,44l0.1-0.2l0.1-0.3l0.3-0.9
	v-0.2l-0.2,0.3l-0.4,1.2l-0.1,0.2C9.7,44.1,9.7,44.3,9.7,44.3z M10.9,57.8h0.2l0.4-0.4l0.1-0.4l0.2-1v-0.2l0.1-0.3v-0.1l1.1-4.5
	v-0.5l1.1-4.7l0.1-0.4l1.2-5l0.1-0.2l0.1-0.1l2.4-8.8v-0.4L17.8,31l-0.9,1.7l-0.4,1.4l-0.1,0.3v0.1l-0.1,0.2l-1.6,5.7v0.7l-0.9,3.2
	l-0.1,0.2v0.2l-0.1,0.2l-1.4,6.3L12,51.4l-0.1,0.2l-1,5.2V57.8z M11.7,64h0.6l0.2-0.1l3.2-0.9l0.4-0.1l0.1-0.2l1.2-0.5l0.1-0.1
	l3.6-1.8l0.1-0.2l0.2-0.1l0.1-0.1l2.5-1.4l0.4-0.1l0.4-0.2l1.4-1l0.1-0.2l0.2-0.1l0.1-0.1l2.1-1.7l0.2-0.1l0.2-0.1l0.1-0.2l1-1.2
	l0.1-0.1v0l-0.2-0.3l0.6-0.6l0.1-0.2h0.1l2.2-2.3l0.3-0.3l0.1-0.2l2.2-2.8l0.1-0.2l0.3-0.4l2.1-3.1l0.1-0.2l0.1-0.2l0.2-0.5
	l-0.2,0.3l-2.3,3.3l-0.4,0.4L34,48.3l-0.2,0.1l-0.1,0.3l-2.3,2.5l-0.1,0.3l-0.1,0.1l-0.3,0.2l-1.7,1.6l-0.1,0.2h-0.2L28,54.1
	l-0.9,0.8L27,55.1l-0.2,0.1l-0.1,0.1l-2.6,1.9l-0.2,0.1l-0.1,0.1l-0.4,0l-1.2,0.9v0.1v0.1h0.1l2-1.2h0.1l0.2-0.1l1.6-1.2l0.4-0.2
	l1.2-0.9l0.1-0.1V55l-0.3,0.3l-1.1,0.9h-0.1l-0.5,0.6h-0.2L25.4,57l-0.2,0.4h-0.1l-0.3,0.3l-2.6,1.7L22,59.5l-0.1,0.1l-0.2,0.1
	l-3.1,1.7l-0.2,0h-0.1L17.1,62l-0.2,0.2l-0.3,0.1l-3.3,1.1l-0.4,0.2L11.7,64L11.7,64z M11.8,57.3l0.5,0.2l0.2-0.1l0.4-0.1l2.3-1.5
	l0.2-0.2l0.3-0.3l3.5-2.7l0.2-0.1l0.3-0.4l0.2-0.2h0.2l0.1-0.2l3.6-3.2l0.2-0.2l0.3-0.2l4.2-4.5l0.2-0.2l0.1-0.1l0.1-0.2l3-4V39
	l0.1-0.2l0.2-0.1l0.5-0.7l0.1-0.3l0.2-0.2l2.8-5l0.1-0.1l0.2-0.3l1.7-3.8l0.1-0.3v-0.1l0.1-0.3l1-3.1l0.1-0.2l0.1-0.1l0.1-0.2
	l0.4-2.5l0.1-0.1v-0.2l0.1-0.2l0.3-1.8l0.1-0.1v-0.7v-4v-0.6l-0.5-1.6v-0.4l-0.1-0.1l-0.3-1.3v-0.3l-0.1-0.3L38.9,9l-0.2-0.1
	l-0.1-0.3l-1.8-2l-0.2-0.2h-0.2l-2.3-1.6H34l-0.4-0.2L31,3.4l-0.1-0.1h-0.2l-0.3-0.1l-1.7-0.4h-0.3l-0.2,0.1L25.5,3l-0.3,0.1
	l-0.1,0.1L25,3.6v0.1l0.1,0.4v0.1L25,4.3h-0.1l-0.1-0.1l-0.1-0.1L24.6,4h-0.2l0,0.3v0.5l0.1,0.5v0.1v0.4l-0.1,3.3v0.3v0.3L24.2,11
	v0.3l-0.1,0.1v0.2l-0.8,3.3l-0.1,0.3v0.1l-0.1,0.2l-1.2,4l-0.1,0.2l-0.1,0.1L21.6,20L21,21.9L20.9,22v0.4l0.2,0.1v0.1L21,22.7
	l-1.6,4.9l-0.1,0.2l-0.1,0.1l-0.1,0.3L17,35.6L16.9,36l-0.1,0.1L14.7,44v0.2l0,0.2l-1,3.9l-0.1,0.2l0.1,0.1l-0.1,0.2L13.1,51v0.2
	L13,51.3l-0.1,0.3l-1,5L11.8,57.3z M14.7,57.2l0.6-0.2l0.2-0.1l0.7-0.6l0.4-0.1l0.5-0.7l0.2-0.2h0.1l0.4-0.4h-0.1L17.6,55h-0.2
	l-0.9,0.7l-0.1,0.2L16.2,56l-1.4,0.9L14.7,57V57.2z M18.1,54.9l0.4-0.5h0.1v-0.1l0.2-0.2h-0.2h-0.2l-0.3,0.2v0.1V54.9L18.1,54.9z
	 M28.3,54.8l0.2-0.4l0.2-0.1l0.2,0.1h0L28.3,54.8L28.3,54.8z M29.2,54.1L29.2,54.1l0.4-0.6h0.1l0.2-0.1l0.1,0.1L29.4,54L29.2,54.1z
	 M33.9,3.7l0.2-0.1L33.4,3l-0.2-0.1l-1.3-0.4h-0.5v0.3v0.1h0.2l2.2,0.8H33.9z M34.8,4.4L34.8,4.4L34.8,4.4L34.8,4.4z M43.1,15.2
	L43.1,15.2l0.1-0.1l0.1-0.1v-0.1l-0.1-0.1l-0.1-0.2L43,14.5l-0.1,0.1L43.1,15.2L43.1,15.2z"/>
</svg>
